
<svg width="302px" height="68px" viewBox="0 0 302 68" version="1.1" xmlns="http://www.w3.org/2000/svg">
    <title>Favester</title>
    <g id="Symbols" stroke="none" stroke-width="1" fill="none" fill-rule="evenodd">
        <g id="logo">
            <g id="Shape">
                <path d="M44.73,19.12 L44.18,19.12 C43.4214674,19.0130404 42.6560037,18.9629008 41.89,18.97 C37.97,18.97 35.17,19.79 33.44,21.41 C31.71,23.03 30.72,25.69 30.72,29.13 L30.72,58.13 L13.49,67.13 L17.65,42.9 L0,25.65 L24.4,22.1 L35.3,0 L44.73,19.12 Z" fill="#ED1C24"></path>
                <path d="M52.94,42.9 L57.11,67.2 L40.45,58.4 L40.45,39.57 L41.88,39.57 C43.1556366,39.5623509 44.3745835,39.0419272 45.2623935,38.1259029 C46.1502035,37.2098786 46.6322501,35.9752518 46.6,34.7 L46.6,32.56 L40.45,32.56 L40.45,29.98 C40.3425321,29.1480133 40.6057622,28.3107954 41.17,27.69 C42.0525032,27.2398217 43.0423394,27.0425467 44.03,27.12 L46.6,27.12 L46.6,22.12 L70.6,25.61 L52.94,42.9 Z" fill="#ED1C24"></path>
                <path d="M83.69,55.85 L83.69,19.96 C83.69,16.8133333 84.52,14.4566667 86.18,12.89 C87.84,11.3233333 90.4266667,10.58 93.94,10.66 C94.642329,10.64806 95.344506,10.6915281 96.04,10.79 C96.7855695,10.7759666 97.5311115,10.8194287 98.27,10.92 L98.27,18.12 L95.91,18.12 C95.0054243,18.0484113 94.0986712,18.2283776 93.29,18.64 C92.774733,19.2101684 92.5369338,19.9784427 92.64,20.74 L92.64,23.1 L98.27,23.1 L98.27,25.1 C98.2860125,26.2615217 97.837852,27.3814111 97.0249458,28.2112138 C96.2120395,29.0410166 95.1016054,29.5121175 93.94,29.52 L92.63,29.52 L92.63,55.85 L83.72,55.85 L83.69,55.85 Z" fill="#DC0000" fill-rule="nonzero"></path>
                <path d="M121.82,54.41 C120.006848,55.3652291 118.028178,55.9659572 115.99,56.18 C114.183641,56.3845424 112.367839,56.4946921 110.55,56.51 C107.59722,56.5701102 104.703863,55.6757998 102.3,53.96 C99.94,52.26 98.76,49.4433333 98.76,45.51 C98.76,41.8433333 99.83,39.2233333 101.97,37.65 C104.408446,35.9612321 107.217568,34.8842308 110.16,34.51 C110.688782,34.4970152 111.214851,34.43 111.73,34.31 C112.423952,34.1644661 113.124858,34.0543238 113.83,33.98 C117.67,33.4533333 119.59,32.3166667 119.59,30.57 C119.647692,29.3417212 118.796648,28.2566393 117.59,28.02 C116.38042,27.6496753 115.124824,27.4510688 113.86,27.43 C112.748066,27.412022 111.641507,27.5879885 110.59,27.95 C109.641667,28.290815 108.882201,29.0175766 108.5,29.95 L99.72,29.95 C100.022956,27.3291578 101.340383,24.9312248 103.39,23.27 C105.75,21.27 109.113333,20.27 113.48,20.27 C118.366667,20.27 122.033333,21.1 124.48,22.76 C126.944514,24.3725082 128.385941,27.1567383 128.28,30.1 L128.28,42.02 C128.28,45.5133333 127.646667,48.2433333 126.38,50.21 C125.268402,51.9971223 123.692306,53.4487899 121.82,54.41 Z M119.72,38.3 C118.084362,39.055247 116.370768,39.6286807 114.61,40.01 L111.61,40.66 C110.349715,40.9344646 109.17772,41.5187437 108.2,42.36 C107.62178,43.2110771 107.302257,44.2113237 107.28,45.24 C107.226174,46.404184 107.652781,47.5393936 108.46,48.38 C109.433223,49.1172793 110.642585,49.4729738 111.86,49.38 C113.99692,49.5688227 116.107745,48.801581 117.624663,47.284663 C119.141581,45.7677449 119.908823,43.6569199 119.72,41.52 L119.72,38.24 L119.72,38.3 Z" fill="#DC0000" fill-rule="nonzero"></path>
                <path d="M151.7,55.85 L142.4,55.85 L130.22,21.01 L139.94,21.01 L146.88,45.5 L153.04,24.15 C153.502991,22.2339954 155.261069,20.9164861 157.23,21.01 L164.04,21.01 L151.7,55.85 Z" fill="#DC0000" fill-rule="nonzero"></path>
                <path d="M190.48,45.11 L197.03,45.11 C196.267784,48.475432 194.314355,51.4517478 191.53,53.49 C188.542743,55.5800405 184.95298,56.6337869 181.31,56.49 C176.33,56.49 172.443333,54.8733333 169.65,51.64 C166.856667,48.4066667 165.46,43.91 165.46,38.15 C165.46,32.5633333 166.813333,28.1966667 169.52,25.05 C172.226667,21.9033333 176.113333,20.2866667 181.18,20.2 C186.42,20.2 190.48,21.7733333 193.36,24.92 C196.24,28.0666667 197.636667,32.5633333 197.55,38.41 L197.55,39.9 C197.570854,40.2123606 197.526585,40.5256471 197.42,40.82 L174.77,40.82 C174.856667,43.5266667 175.523333,45.5266667 176.77,46.82 C178.048218,48.2847724 179.941177,49.0627009 181.88,48.92 C183.206291,48.9600448 184.518898,48.6422557 185.68,48 C185.953612,47.9070325 186.200649,47.7492034 186.4,47.54 L187.12,46.82 C187.363333,46.4074091 187.707409,46.0633326 188.12,45.82 C188.809563,45.3351196 189.637365,45.0860774 190.48,45.11 Z M174.77,34.9 L188.13,34.9 C188.124296,32.9976371 187.479841,31.1523111 186.3,29.66 C185.021532,28.3812189 183.254556,27.714504 181.45,27.83 C179.695052,27.7657793 177.991232,28.427773 176.74,29.66 C175.432548,31.0874983 174.726799,32.9647181 174.77,34.9 Z" fill="#DC0000" fill-rule="nonzero"></path>
                <path d="M198.89,44.32 L207.8,44.32 C207.791553,45.8764298 208.536751,47.3407439 209.8,48.25 C211.37884,49.1948758 213.202259,49.6507305 215.04,49.56 C216.448795,49.5958632 217.844276,49.2796459 219.1,48.64 C220.055877,48.1778978 220.665084,47.211704 220.67,46.15 C220.67,44.5766667 218.836667,43.3966667 215.17,42.61 C213.972161,42.4341707 212.788943,42.1701192 211.63,41.82 C207.003333,40.6866667 203.903333,39.3333333 202.33,37.76 C200.562791,36.1586517 199.602148,33.8523753 199.71,31.47 C199.651328,28.2842023 201.050733,25.2460196 203.51,23.22 C206.13,21.22 209.533333,20.22 213.72,20.22 C218.26,20.22 221.883333,21.22 224.59,23.22 C227.09436,25.3483703 228.5714,28.4443339 228.65,31.73 L222.94,31.73 C221.351358,31.7735445 219.876718,30.908164 219.14,29.5 L218.14,28.5 C216.86621,27.6482812 215.349898,27.2341032 213.82,27.32 C212.463515,27.2360008 211.108657,27.5083514 209.89,28.11 C209.103563,28.6296037 208.653821,29.5290884 208.71,30.47 C208.71,31.87 210.98,33.05 215.52,34.01 C215.972646,34.1647414 216.433316,34.2949309 216.9,34.4 C217.263979,34.4846778 217.636305,34.5282835 218.01,34.53 C222.463333,35.6633333 225.563333,36.9733333 227.31,38.46 C228.998805,40.1057795 229.904723,42.3942232 229.8,44.75 C229.972289,48.23205 228.40174,51.5718086 225.61,53.66 C222.99,55.58 219.06,56.54 213.82,56.54 C208.846667,56.54 205.136667,55.54 202.69,53.54 C200.243333,51.54 198.976667,48.6133333 198.89,44.76 L198.89,44.37 L198.89,44.32 Z" fill="#DC0000" fill-rule="nonzero"></path>
                <path d="M247.36,55.85 C244.240697,56.0207133 241.113358,55.977278 238,55.72 C234.666667,55.4533333 233,53.3133333 233,49.3 L233,10.79 L237.72,10.79 C238.857504,10.7959784 239.942436,11.2697319 240.72,12.1 C241.570787,12.921372 242.044783,14.0575145 242.03,15.24 L242.03,21.13 L247.4,21.13 L247.4,22.96 C247.442031,24.1680237 246.965251,25.3363188 246.09,26.17 C245.249015,26.9905368 244.114781,27.4406295 242.94,27.42 L242.02,27.42 L242.02,46.81 C242.02,48.2966667 242.893333,49.04 244.64,49.04 L247.39,49.04 L247.39,55.85 L247.36,55.85 Z" fill="#DC0000" fill-rule="nonzero"></path>
                <path d="M273.05,45.11 L279.6,45.11 C278.839476,48.4761506 276.885688,51.4530141 274.1,53.49 C271.113066,55.5807135 267.523071,56.634528 263.88,56.49 C258.906667,56.49 255.02,54.8733333 252.22,51.64 C249.42,48.4066667 248.023333,43.91 248.03,38.15 C248.03,32.5633333 249.383333,28.1966667 252.09,25.05 C254.796667,21.9033333 258.683333,20.2866667 263.75,20.2 C268.99,20.2 273.05,21.7733333 275.93,24.92 C278.81,28.0666667 280.206667,32.5633333 280.12,38.41 L280.12,39.9 C280.141444,40.2123821 280.097158,40.5257899 279.99,40.82 L257.33,40.82 C257.416667,43.5266667 258.083333,45.5266667 259.33,46.82 C260.608218,48.2847724 262.501177,49.0627009 264.44,48.92 C265.766291,48.9600448 267.078898,48.6422557 268.24,48 C268.513962,47.9077617 268.761164,47.7498273 268.96,47.54 L269.68,46.82 C269.922983,46.4071385 270.267139,46.0629832 270.68,45.82 C271.372644,45.3337021 272.20407,45.0846253 273.05,45.11 Z M257.33,34.9 L270.69,34.9 C270.684296,32.9976371 270.039841,31.1523111 268.86,29.66 C267.583893,28.3839217 265.821153,27.7174312 264.02,27.83 C262.265052,27.7657793 260.561232,28.427773 259.31,29.66 C257.998914,31.0859475 257.289516,32.9633447 257.33,34.9 Z" fill="#DC0000" fill-rule="nonzero"></path>
                <path d="M282.23,55.85 L282.23,38.95 C282.14396,36.0170249 282.657791,33.0973743 283.74,30.37 C284.632755,28.201854 286.048155,26.2883161 287.86,24.8 C289.590296,23.4479878 291.577101,22.4613895 293.7,21.9 C295.93834,21.2864348 298.249091,20.9769892 300.57,20.98 L301.88,20.9799782 L301.88,30.28 L298.88,30.28 C296.346667,30.28 294.47,30.89 293.25,32.11 C292.03,33.33 291.413333,35.26 291.4,37.9 L291.4,55.85 L282.23,55.85 Z" fill="#DC0000" fill-rule="nonzero"></path>
            </g>
        </g>
    </g>
</svg>