<svg xmlns="http://www.w3.org/2000/svg" xmlns:xlink="http://www.w3.org/1999/xlink" viewBox="0 0 188.34 196.3"><defs><style>.a,.d,.k{fill:#fff;}.a{clip-rule:evenodd;}.b{fill:#151600;}.b,.c,.d,.e,.f,.g,.h,.i{fill-rule:evenodd;}.c{fill:#d64200;}.e{fill:#bc2a00;}.f{fill:#ee9c7a;}.g{fill:#cbcbcb;}.h{fill:#b1b1b1;}.i{fill:#7e7e7e;}.j{clip-path:url(#a);}</style><clipPath id="a" transform="translate(-109.26 -321.42)"><polygon class="a" points="213.93 452.41 209.36 461.56 199.16 463.03 206.54 470.16 209.38 469.22 205.91 465.88 204.86 464.87 211.12 463.96 213.93 458.33 216.74 463.96 223.01 464.87 218.47 469.24 219.54 475.43 213.93 472.51 205.36 477 204.8 480.23 213.93 475.47 223.07 480.23 221.32 470.16 228.71 463.03 218.49 461.56 213.93 452.41"/></clipPath></defs><title>mascot</title><path class="b" d="M213.93,501.83c21.32,0,38.61,2.44,38.61,5.46s-17.29,5.46-38.61,5.46-38.61-2.44-38.61-5.46,17.29-5.46,38.61-5.46h0Z" transform="translate(-109.26 -321.42)"/><path class="b" d="M277.11,506.81c11.31,0,20.49,2.44,20.49,5.46s-9.18,5.46-20.49,5.46-20.49-2.44-20.49-5.46,9.18-5.46,20.49-5.46h0Z" transform="translate(-109.26 -321.42)"/><path class="b" d="M163.15,383.62a39.34,39.34,0,0,1-2.57-5.63,63.8,63.8,0,0,1-3-10.35c-1.37-6.89-2-16.76,4.1-21.68a11.36,11.36,0,0,1,3.35-1.86c3.41-1.2,7.22-.83,10.65.09a41.66,41.66,0,0,1,7.91,3.1,60.53,60.53,0,0,1,8.76,5.4,59.71,59.71,0,0,1,17.73-3.86l0.25-9.25a9.42,9.42,0,1,1,7,0l0.25,9.25a59.74,59.74,0,0,1,17.73,3.86,60.52,60.52,0,0,1,8.76-5.4,41.65,41.65,0,0,1,7.91-3.1c4.71-1.26,10-1.44,14,1.77,6.11,4.91,5.47,14.79,4.1,21.68a63.85,63.85,0,0,1-3,10.35,39.3,39.3,0,0,1-2.57,5.63,56,56,0,0,1,2.23,16v22.68a21.09,21.09,0,0,1-1.46,7.7,24.46,24.46,0,0,1-12.5,13l7,34.33a22.46,22.46,0,0,1,.41,3l10.05,5.8a16.21,16.21,0,0,1,7-2.13,16.1,16.1,0,0,1,17,18.29,3.2,3.2,0,0,1-4.83,2.29l-9.21-5.32-1.64,2.85,9.27,5.36a3.19,3.19,0,0,1,.25,5.37,16.08,16.08,0,0,1-16.35,1.92l0,0.08L270.3,514a16.09,16.09,0,0,1-8-14l-11.35-6.55c-0.51.08-1,.14-1.6,0.18a16.11,16.11,0,0,1-5.3-.57v9.49a6.64,6.64,0,0,1-6.62,6.62H225.59A6.64,6.64,0,0,1,219,502.6v-5.83q-2.51.21-5,.2c-1.68,0-3.36-.07-5-0.2v5.83a6.64,6.64,0,0,1-6.62,6.62H190.48a6.64,6.64,0,0,1-6.62-6.62V493.1a16.11,16.11,0,0,1-5.3.57,13.12,13.12,0,0,1-5.52-1.52c-5.52-3-6.14-9.23-5-14.83l1.12-5.49-2.88-2.44-5.09,13.76-51.93-68,47.18,35.44,4.23-11.14,13,10,1.31-6.41A24.5,24.5,0,0,1,162.38,430a21.08,21.08,0,0,1-1.46-7.7V399.59a56,56,0,0,1,2.23-16h0Z" transform="translate(-109.26 -321.42)"/><polygon class="c" points="18.27 111.87 50.85 154.52 55.46 142.04 62.23 147.78 65.22 133.07 53.02 123.71 48.81 134.81 18.27 111.87 18.27 111.87"/><polygon class="d" points="18.27 111.87 35.57 134.52 35.27 131.91 39.92 134.97 38.45 130.68 42.86 132.76 41.85 129.58 18.27 111.87 18.27 111.87"/><path class="c" d="M163.89,348.71c-7.49,6-1.94,25.06,1.93,32.45a44,44,0,0,1,13-18.46,47.44,47.44,0,0,1,5.26-3.86c-4.63-3.46-13.25-7.07-16.6-4.38s-3.7,9.43-2.68,14.14c-1.5-5.89-1.92-12.65,1.59-15.47,4.53-3.64,13.62.86,19.09,4.86a51.17,51.17,0,0,1,4.79-2.49c-7.47-5.52-20.07-11.82-26.33-6.79h0Z" transform="translate(-109.26 -321.42)"/><path class="e" d="M263.82,348.71c7.49,6,1.94,25.06-1.93,32.45a44,44,0,0,0-13-18.46,47.57,47.57,0,0,0-5.3-3.89c4.64-3.46,13.23-7,16.57-4.35s3.7,9.43,2.68,14.14c1.5-5.89,1.92-12.65-1.59-15.47-4.53-3.64-13.59.84-19.05,4.84a51,51,0,0,0-4.75-2.46c7.47-5.52,20.07-11.82,26.33-6.79h0Z" transform="translate(-109.26 -321.42)"/><path class="c" d="M242.24,485.14v3.36a8.22,8.22,0,0,0,1,.58,11.43,11.43,0,0,0,3.21,1c-0.39-1.4.41-4.28,2.11-7.22,2.13-3.68,4.86-6.08,6.11-5.37a2,2,0,0,1,.6,1.92l1.42,0.82a20.45,20.45,0,0,0-.33-2.17l-7.22-35.43a28,28,0,0,1-4.6,1.14,16.33,16.33,0,0,1,.48,3.92V477a13.09,13.09,0,0,1-1.11,5.31,14,14,0,0,1-1.69,2.84h0Z" transform="translate(-109.26 -321.42)"/><path class="e" d="M244.21,489.48a12,12,0,0,0,2.26.56,4.76,4.76,0,0,1,0-2.07,6.78,6.78,0,0,1-2.3,1.51h0Zm12.5-9.28a20.45,20.45,0,0,0-.33-2.17l-7.22-35.43a27.83,27.83,0,0,1-4.6,1.14,16.33,16.33,0,0,1,.48,3.92V462.2L248.26,478a17.37,17.37,0,0,1,.36,4.72c2.12-3.64,4.83-6,6.06-5.29a2,2,0,0,1,.6,1.92l1.42,0.82h0Z" transform="translate(-109.26 -321.42)"/><path class="c" d="M222.49,494.6v8a3.12,3.12,0,0,0,3.1,3.1h11.79a3.12,3.12,0,0,0,3.1-3.1V487.1a25.59,25.59,0,0,1-8.36,5,45.05,45.05,0,0,1-9.64,2.47h0Z" transform="translate(-109.26 -321.42)"/><path class="e" d="M232,505.7h5.38a3.12,3.12,0,0,0,3.1-3.1V487.1a24.67,24.67,0,0,1-7.38,4.64v11.1a4.15,4.15,0,0,1-1.1,2.87h0Z" transform="translate(-109.26 -321.42)"/><path class="c" d="M183.3,443.76a27.67,27.67,0,0,1-4.61-1.12L171.48,478c-0.81,4-.78,8.83,3.25,11a9.6,9.6,0,0,0,4,1.09,12.19,12.19,0,0,0,5.84-1.08,8.22,8.22,0,0,0,1-.58v-3.36a14,14,0,0,1-1.69-2.84,13.09,13.09,0,0,1-1.11-5.31V447.65a16.35,16.35,0,0,1,.47-3.9h0Z" transform="translate(-109.26 -321.42)"/><path class="f" d="M182,445l-0.85-.51-7,34.13c-0.53,2.62-.9,6.52,1.86,8a6.87,6.87,0,0,0,2.86.75,9.82,9.82,0,0,0,2.56-.19,5,5,0,0,1-1.83-.9c-2.76-2.18-2.4-7.79-1.86-11.54L182,445h0Z" transform="translate(-109.26 -321.42)"/><path class="c" d="M187.38,487.1v15.5a3.12,3.12,0,0,0,3.1,3.1h11.79a3.12,3.12,0,0,0,3.1-3.1v-8a45.05,45.05,0,0,1-9.64-2.47,25.6,25.6,0,0,1-8.36-5h0Z" transform="translate(-109.26 -321.42)"/><path class="f" d="M190.17,489.3v13.3a0.33,0.33,0,0,0,.31.31h5.27V492.13h0a29.25,29.25,0,0,1-5.57-2.83h0Z" transform="translate(-109.26 -321.42)"/><path class="c" d="M242.8,444a14.56,14.56,0,0,1,.48,3.7V477c0,21.94-58.69,21.94-58.69,0V447.65a14.58,14.58,0,0,1,.47-3.68q1.21,0.11,2.43.11h52.73c0.86,0,1.72,0,2.58-.12h0Z" transform="translate(-109.26 -321.42)"/><path class="f" d="M187.85,444.08a13.81,13.81,0,0,0-.47,3.57V477c0,10.11,13.13,14,19.65,13.58-6.49-.42-14.52-3.08-14.52-13.58V447.65a13.84,13.84,0,0,1,.47-3.57h-5.14Z" transform="translate(-109.26 -321.42)"/><path class="e" d="M242.8,444a14.56,14.56,0,0,1,.48,3.7V477c0,7.06-6.08,11.85-14.33,14.37a14.59,14.59,0,0,0,3.86-5.85,13.84,13.84,0,0,0,.72-4.49V444.08h6.7c0.86,0,1.72,0,2.58-.12h0Z" transform="translate(-109.26 -321.42)"/><path class="c" d="M213.86,352.22c-12.61,0-24.87,4.14-33.94,11.82-11.1,9.4-15.48,22.34-15.48,35.55v22.68c0,11,10.38,20,23.06,20h52.73c12.67,0,23.06-9,23.06-20V399.59c0-13.21-4.38-26.15-15.48-35.55-9.07-7.68-21.33-11.77-33.94-11.82h0Z" transform="translate(-109.26 -321.42)"/><path class="e" d="M213.86,352.22q-2.06,0-4.1.16c11.14,0.82,21.76,4.82,29.84,11.66,11.1,9.4,18,21.66,18,34.88V421.6c0,11-12.91,20.72-25.58,20.72h8.21c12.67,0,23.06-9,23.06-20V399.59c0-13.21-4.38-26.15-15.48-35.55-9.07-7.68-21.33-11.77-33.94-11.82h0Z" transform="translate(-109.26 -321.42)"/><path class="b" d="M217.42,432.62h-7L208,436.9H189.43a15.21,15.21,0,0,1-6.86-1.64,17.79,17.79,0,0,1-9.43-15.94V405.56a13.16,13.16,0,0,1,.79-4.52c2.3-6.31,9.06-10.08,15-12.22,7.77-2.79,16.75-3.86,25-3.86s17.21,1.07,25,3.86c6,2.14,12.74,5.91,15,12.22a13.15,13.15,0,0,1,.79,4.52v13.75a17.79,17.79,0,0,1-9.43,15.94,15.21,15.21,0,0,1-6.86,1.64H219.89l-0.73-1.26-1.74-3h0Z" transform="translate(-109.26 -321.42)"/><path class="d" d="M253.19,405.56v8.16h-6a11.11,11.11,0,1,0,0,1.26h6v4.34c0,8.82-6.64,16-14.76,16H220.78l-0.28-.49-2.19-3.79h-3.69v-6.24c0-2.25-.25-2.39,1.83-3.4s4-1.68,4-2.48c0-2.66-13.11-2.66-13.11,0,0,0.82,2,1.45,4.17,2.54,2,1,1.7,1.18,1.7,3.34v6.24h-3.69l-2.19,3.79-0.28.49H189.43c-8.12,0-14.76-7.22-14.76-16V415h6a11.1,11.1,0,1,0,0-1.26h-6v-8.16c0-25.4,78.52-25.4,78.52,0h0Zm-17.09.36a8.43,8.43,0,1,1-8.43,8.43,8.43,8.43,0,0,1,8.43-8.43h0Zm-44.35,0a8.43,8.43,0,1,1-8.43,8.43,8.43,8.43,0,0,1,8.43-8.43h0Zm44.35-1.7A10.13,10.13,0,1,1,226,414.35a10.13,10.13,0,0,1,10.13-10.13h0Zm-44.35,0a10.13,10.13,0,1,1-10.13,10.13,10.13,10.13,0,0,1,10.13-10.13h0Z" transform="translate(-109.26 -321.42)"/><path class="g" d="M235.08,433.6h3.36a11.89,11.89,0,0,0,5.38-1.29,14.5,14.5,0,0,0,7.62-13v-2.58h-2.68a12.89,12.89,0,0,1-8.41,9.76,17.69,17.69,0,0,1-5.26,7.1h0Zm6.36-31a12.88,12.88,0,0,1,7.32,9.32h2.68v-6.4a9.86,9.86,0,0,0-.59-3.39c-1.91-5.26-8.11-8.48-13-10.24a58.79,58.79,0,0,0-10.07-2.56c6.07,2.52,12.25,6.8,13.71,13.27h0Z" transform="translate(-109.26 -321.42)"/><path class="d" d="M197.1,410c0.73,0.73,1,1.67.58,2.08s-1.35.16-2.08-.58-1-1.67-.58-2.08,1.35-.16,2.08.58h0Zm45,0c0.73,0.73,1,1.67.58,2.08s-1.35.16-2.08-.58-1-1.67-.58-2.08,1.35-.16,2.08.58h0Z" transform="translate(-109.26 -321.42)"/><path class="f" d="M192.4,358.25c6-2.46,11.38-3.13,12.05-1.5s-3.64,5-9.62,7.41-11.38,3.13-12.05,1.5,3.64-5,9.62-7.41h0Z" transform="translate(-109.26 -321.42)"/><path class="h" d="M286.3,510.24a12.91,12.91,0,0,1-20.72-12l-17-9.82a11.46,11.46,0,0,1,4.84-8.38l17,9.82a12.91,12.91,0,0,1,20.73,12l-12-7-4.84,8.38,12,7h0Z" transform="translate(-109.26 -321.42)"/><path class="d" d="M289.81,500.21l0.67,0.38a12.14,12.14,0,0,0-19.6-10.09l-0.41.32-17-9.82-0.57.52c-1.12,1,.22,1.33,1.29,1.95l15.72,9.07,0.41-.32a12.14,12.14,0,0,1,19.5,8h0Z" transform="translate(-109.26 -321.42)"/><path class="i" d="M286.3,510.24a12.91,12.91,0,0,1-20.73-12l-17-9.82a11.19,11.19,0,0,1,3.91-7.61,11.34,11.34,0,0,0-2,5.51l17,9.82a12.91,12.91,0,0,0,18,13.6l0.82,0.47h0Z" transform="translate(-109.26 -321.42)"/><polygon class="d" points="104.67 130.99 100.1 140.14 89.9 141.61 97.28 148.73 100.12 147.8 96.65 144.45 95.6 143.44 101.86 142.54 104.67 136.91 107.48 142.54 113.75 143.44 109.21 147.82 110.28 154 104.67 151.09 96.1 155.57 95.54 158.8 104.67 154.05 113.81 158.8 112.06 148.74 119.45 141.61 109.23 140.14 104.67 130.99"/><g class="j"><rect class="k" x="85.68" y="126.76" width="37.99" height="36.26"/></g></svg>